<mxfile host="app.diagrams.net" modified="2023-09-20T00:42:18.949Z" agent="Mozilla/5.0 (Macintosh; Intel Mac OS X 10_15_7) AppleWebKit/537.36 (KHTML, like Gecko) Chrome/117.0.0.0 Safari/537.36" version="21.6.8" etag="VCYQ9c3EUdzkn4P1Ri3y" type="github">
  <diagram name="Page-1" id="Kna1bUiEKwg3wUTfXKl5">
    <mxGraphModel>
      <root>
        <mxCell id="0" />
        <mxCell id="1" parent="0" />
      </root>
    </mxGraphModel>
  </diagram>
</mxfile>
